<mxfile host="app.diagrams.net" modified="2020-11-03T02:10:46.875Z" agent="5.0 (Macintosh; Intel Mac OS X 10_15_7) AppleWebKit/537.36 (KHTML, like Gecko) Chrome/86.0.4240.111 Safari/537.36" etag="DP5UK7JB0eJCM8a6kdlG" version="13.8.6" type="github">
  <diagram id="ATNmtUacLc5DAZmJSv_c" name="Page-1">
    <mxGraphModel dx="2086" dy="786" grid="1" gridSize="10" guides="1" tooltips="1" connect="1" arrows="1" fold="1" page="1" pageScale="1" pageWidth="827" pageHeight="1169" math="0" shadow="0">
      <root>
        <mxCell id="0" />
        <mxCell id="1" parent="0" />
        <mxCell id="fDhaiRhGN_Uy4ejS6rby-1" value="" style="endArrow=none;html=1;dashed=1;" edge="1" parent="1">
          <mxGeometry width="50" height="50" relative="1" as="geometry">
            <mxPoint x="400" y="550" as="sourcePoint" />
            <mxPoint x="400" y="170" as="targetPoint" />
          </mxGeometry>
        </mxCell>
        <mxCell id="fDhaiRhGN_Uy4ejS6rby-2" value="管理时" style="text;html=1;strokeColor=none;fillColor=none;align=center;verticalAlign=middle;whiteSpace=wrap;rounded=0;" vertex="1" parent="1">
          <mxGeometry x="260" y="150" width="40" height="20" as="geometry" />
        </mxCell>
        <mxCell id="fDhaiRhGN_Uy4ejS6rby-3" value="" style="endArrow=none;html=1;dashed=1;" edge="1" parent="1">
          <mxGeometry width="50" height="50" relative="1" as="geometry">
            <mxPoint x="140" y="550" as="sourcePoint" />
            <mxPoint x="140" y="170" as="targetPoint" />
          </mxGeometry>
        </mxCell>
        <mxCell id="fDhaiRhGN_Uy4ejS6rby-4" value="前端" style="text;html=1;strokeColor=none;fillColor=none;align=center;verticalAlign=middle;whiteSpace=wrap;rounded=0;" vertex="1" parent="1">
          <mxGeometry y="150" width="40" height="20" as="geometry" />
        </mxCell>
        <mxCell id="fDhaiRhGN_Uy4ejS6rby-5" value="运行时" style="text;html=1;strokeColor=none;fillColor=none;align=center;verticalAlign=middle;whiteSpace=wrap;rounded=0;" vertex="1" parent="1">
          <mxGeometry x="500" y="150" width="40" height="20" as="geometry" />
        </mxCell>
        <mxCell id="fDhaiRhGN_Uy4ejS6rby-6" value="添加规则" style="rounded=0;whiteSpace=wrap;html=1;fillColor=#f5f5f5;strokeColor=#666666;fontColor=#333333;" vertex="1" parent="1">
          <mxGeometry x="-25" y="200" width="90" height="30" as="geometry" />
        </mxCell>
        <mxCell id="fDhaiRhGN_Uy4ejS6rby-7" value="添加事件" style="rounded=0;whiteSpace=wrap;html=1;fillColor=#f5f5f5;strokeColor=#666666;fontColor=#333333;" vertex="1" parent="1">
          <mxGeometry x="-25" y="250" width="90" height="30" as="geometry" />
        </mxCell>
        <mxCell id="fDhaiRhGN_Uy4ejS6rby-8" value="添加data model" style="rounded=0;whiteSpace=wrap;html=1;fillColor=#f5f5f5;strokeColor=#666666;fontColor=#333333;" vertex="1" parent="1">
          <mxGeometry x="-25" y="300" width="90" height="30" as="geometry" />
        </mxCell>
        <mxCell id="fDhaiRhGN_Uy4ejS6rby-9" value="关联规则" style="rounded=0;whiteSpace=wrap;html=1;fillColor=#f5f5f5;strokeColor=#666666;fontColor=#333333;" vertex="1" parent="1">
          <mxGeometry x="-25" y="350" width="90" height="30" as="geometry" />
        </mxCell>
        <mxCell id="fDhaiRhGN_Uy4ejS6rby-10" value="&lt;b&gt;。&lt;br&gt;。&lt;br&gt;。&lt;br&gt;。&lt;br&gt;。&lt;br&gt;。&lt;/b&gt;" style="text;html=1;strokeColor=none;fillColor=none;align=center;verticalAlign=middle;whiteSpace=wrap;rounded=0;" vertex="1" parent="1">
          <mxGeometry y="440" width="40" height="120" as="geometry" />
        </mxCell>
        <mxCell id="fDhaiRhGN_Uy4ejS6rby-12" value="" style="shape=flexArrow;endArrow=classic;html=1;strokeWidth=3;" edge="1" parent="1">
          <mxGeometry width="50" height="50" relative="1" as="geometry">
            <mxPoint x="100" y="340" as="sourcePoint" />
            <mxPoint x="180" y="340" as="targetPoint" />
          </mxGeometry>
        </mxCell>
        <mxCell id="fDhaiRhGN_Uy4ejS6rby-13" value="http" style="edgeLabel;html=1;align=center;verticalAlign=middle;resizable=0;points=[];" vertex="1" connectable="0" parent="fDhaiRhGN_Uy4ejS6rby-12">
          <mxGeometry x="-0.425" y="1" relative="1" as="geometry">
            <mxPoint as="offset" />
          </mxGeometry>
        </mxCell>
        <mxCell id="fDhaiRhGN_Uy4ejS6rby-14" value="事件controller" style="rounded=0;whiteSpace=wrap;html=1;fillColor=#ffe6cc;strokeColor=#d79b00;" vertex="1" parent="1">
          <mxGeometry x="220" y="200" width="110" height="40" as="geometry" />
        </mxCell>
        <mxCell id="fDhaiRhGN_Uy4ejS6rby-15" value="规则controller" style="rounded=0;whiteSpace=wrap;html=1;fillColor=#ffe6cc;strokeColor=#d79b00;" vertex="1" parent="1">
          <mxGeometry x="220" y="260" width="110" height="40" as="geometry" />
        </mxCell>
        <mxCell id="fDhaiRhGN_Uy4ejS6rby-16" value="SinkController" style="rounded=0;whiteSpace=wrap;html=1;fillColor=#ffe6cc;strokeColor=#d79b00;" vertex="1" parent="1">
          <mxGeometry x="220" y="320" width="110" height="40" as="geometry" />
        </mxCell>
        <mxCell id="fDhaiRhGN_Uy4ejS6rby-17" value="StateController" style="rounded=0;whiteSpace=wrap;html=1;fillColor=#ffe6cc;strokeColor=#d79b00;" vertex="1" parent="1">
          <mxGeometry x="220" y="380" width="110" height="40" as="geometry" />
        </mxCell>
        <mxCell id="fDhaiRhGN_Uy4ejS6rby-19" value="状态轮转" style="rounded=0;whiteSpace=wrap;html=1;fillColor=#f5f5f5;strokeColor=#666666;fontColor=#333333;" vertex="1" parent="1">
          <mxGeometry x="-25" y="400" width="90" height="30" as="geometry" />
        </mxCell>
        <mxCell id="fDhaiRhGN_Uy4ejS6rby-20" value="&lt;b&gt;。&lt;br&gt;。&lt;br&gt;。&lt;br&gt;。&lt;br&gt;。&lt;br&gt;。&lt;/b&gt;" style="text;html=1;strokeColor=none;fillColor=none;align=center;verticalAlign=middle;whiteSpace=wrap;rounded=0;" vertex="1" parent="1">
          <mxGeometry x="255" y="440" width="40" height="120" as="geometry" />
        </mxCell>
        <mxCell id="fDhaiRhGN_Uy4ejS6rby-21" value="" style="shape=flexArrow;endArrow=classic;html=1;strokeWidth=3;" edge="1" parent="1">
          <mxGeometry width="50" height="50" relative="1" as="geometry">
            <mxPoint x="360" y="339.5" as="sourcePoint" />
            <mxPoint x="440" y="339.5" as="targetPoint" />
          </mxGeometry>
        </mxCell>
        <mxCell id="fDhaiRhGN_Uy4ejS6rby-22" value="rainbow&lt;br&gt;notify" style="edgeLabel;html=1;align=center;verticalAlign=middle;resizable=0;points=[];" vertex="1" connectable="0" parent="fDhaiRhGN_Uy4ejS6rby-21">
          <mxGeometry x="-0.425" y="1" relative="1" as="geometry">
            <mxPoint as="offset" />
          </mxGeometry>
        </mxCell>
        <mxCell id="fDhaiRhGN_Uy4ejS6rby-24" value="策略运行时" style="rounded=0;whiteSpace=wrap;html=1;fillColor=#f8cecc;strokeColor=#b85450;" vertex="1" parent="1">
          <mxGeometry x="475" y="240" width="110" height="40" as="geometry" />
        </mxCell>
        <mxCell id="fDhaiRhGN_Uy4ejS6rby-25" value="特征运行时" style="rounded=0;whiteSpace=wrap;html=1;fillColor=#f8cecc;strokeColor=#b85450;" vertex="1" parent="1">
          <mxGeometry x="475" y="390" width="110" height="40" as="geometry" />
        </mxCell>
      </root>
    </mxGraphModel>
  </diagram>
</mxfile>
